<svg version="1.1" id="Layer_1" xmlns="http://www.w3.org/2000/svg" xmlns:xlink="http://www.w3.org/1999/xlink" x="0px" y="0px"
	 width="100%" viewBox="0 0 926 927" enable-background="new 0 0 926 927" xml:space="preserve">
<path fill="#282A36" opacity="1.000000" stroke="none" 
	d="
M848.000000,928.000000 
	C565.333313,928.000000 283.166656,928.000000 1.000000,928.000000 
	C1.000000,619.000000 1.000000,310.000000 1.000000,1.000000 
	C309.666656,1.000000 618.333313,1.000000 927.000000,1.000000 
	C927.000000,310.000000 927.000000,619.000000 927.000000,928.000000 
	C900.833313,928.000000 874.666687,928.000000 848.000000,928.000000 
M311.499969,510.172729 
	C331.448792,510.172729 351.397644,510.172729 371.463898,510.172729 
	C371.463898,478.161987 371.463898,446.632233 371.463898,415.117493 
	C295.845062,415.117493 220.593292,415.117493 145.253387,415.117493 
	C145.253387,446.891998 145.253387,478.429810 145.253387,510.172760 
	C200.559875,510.172760 255.529907,510.172760 311.499969,510.172729 
M400.018250,447.540771 
	C403.540466,458.270569 407.058868,469.001617 410.586029,479.729797 
	C414.096893,490.408417 414.100891,490.409882 425.415070,489.909912 
	C425.718140,489.896545 426.011566,489.665436 426.522675,489.443176 
	C429.296722,479.404053 432.108582,469.228180 434.920410,459.052338 
	C435.200653,459.074677 435.480927,459.096985 435.761169,459.119293 
	C438.571655,469.412018 441.382111,479.704742 444.141266,489.809540 
	C448.642365,489.809540 452.612183,489.809540 456.627747,489.809540 
	C461.790527,474.103821 466.897644,458.567413 472.052551,442.885651 
	C459.863861,442.125183 459.860657,442.124359 457.059387,453.041992 
	C456.605164,454.812164 456.230804,456.603333 455.754944,458.367371 
	C454.188385,464.174805 452.592163,469.974243 450.651215,477.080597 
	C447.347961,464.752960 444.431854,453.870117 441.549377,443.112793 
	C429.837708,441.498077 429.845215,441.500031 427.124207,452.027740 
	C425.078217,459.943787 423.009674,467.854004 420.701599,476.726105 
	C420.130219,475.154205 419.927429,474.700317 419.798645,474.226379 
	C417.881683,467.171265 415.936371,460.123566 414.073761,453.054077 
	C411.138550,441.913452 411.162659,441.906464 399.718628,442.801453 
	C399.574188,442.812744 399.438324,442.933289 398.925629,443.188232 
	C399.214905,444.315613 399.526642,445.530640 400.018250,447.540771 
M525.282349,490.002319 
	C532.729187,489.378113 526.933289,483.844482 529.743469,480.510590 
	C520.203552,480.510590 511.797791,480.510590 503.312683,480.510590 
	C503.312683,477.042419 503.312683,474.146332 503.312683,470.845215 
	C510.854858,470.845215 518.110901,470.845215 525.554993,470.845215 
	C525.554993,467.664948 525.554993,464.896881 525.554993,461.452667 
	C518.038879,461.452667 510.667816,461.452667 503.236023,461.452667 
	C503.236023,458.011292 503.236023,455.249084 503.236023,452.037445 
	C511.519531,452.037445 519.600342,452.037445 527.742432,452.037445 
	C527.742432,448.697723 527.742432,445.822693 527.742432,442.982361 
	C515.353088,442.982361 503.283508,442.982361 491.228302,442.982361 
	C491.228302,458.747620 491.228302,474.182617 491.228302,490.002289 
	C502.412964,490.002289 513.369873,490.002289 525.282349,490.002319 
M680.898438,462.252563 
	C676.963074,471.366760 673.027649,480.480927 668.913208,490.009705 
	C672.600464,490.009705 675.765442,490.205139 678.883240,489.907471 
	C680.030334,489.798004 681.858948,488.668396 682.025085,487.757507 
	C683.160217,481.534241 687.205688,480.592316 692.563843,481.140106 
	C695.695374,481.460236 698.945984,480.836426 702.026917,481.343170 
	C703.716553,481.621063 706.208313,483.117157 706.534973,484.492340 
	C707.715088,489.460846 710.638977,490.681091 715.198486,490.052948 
	C717.092957,489.791901 719.053345,490.009644 721.467529,490.009644 
	C720.771973,488.049500 720.351257,486.645081 719.784790,485.302216 
	C714.945557,473.831207 710.077576,462.372345 705.223022,450.907806 
	C701.591248,442.330780 701.586731,442.205750 692.473389,442.776825 
	C690.949890,442.872284 688.855652,444.231201 688.176208,445.584290 
	C685.572083,450.770508 683.437012,456.192322 680.898438,462.252563 
M762.771179,487.184845 
	C762.771179,475.606415 762.771179,464.027954 762.771179,452.080414 
	C767.890259,452.080414 772.320801,452.080414 776.754761,452.080414 
	C776.754761,448.769012 776.754761,445.842804 776.754761,442.854553 
	C763.279907,442.854553 750.057129,442.854553 736.730957,442.854553 
	C736.730957,446.073883 736.730957,448.966888 736.730957,452.393921 
	C741.424194,452.393921 745.825867,452.393921 750.635620,452.393921 
	C750.635620,465.177277 750.635620,477.429474 750.635620,490.011078 
	C753.552734,490.011078 756.053833,490.231628 758.489868,489.928894 
	C759.965454,489.745483 761.340454,488.751648 762.771179,487.184845 
M627.930054,470.500549 
	C627.930054,476.927643 627.930054,483.354736 627.930054,489.670898 
	C632.293884,489.670898 636.026184,489.670898 640.139648,489.670898 
	C640.139648,477.089417 640.139648,464.836334 640.139648,452.139679 
	C644.932129,452.139679 649.351440,452.139679 653.870605,452.139679 
	C653.870605,448.775757 653.870605,445.873230 653.870605,442.783051 
	C640.512512,442.783051 627.430115,442.783051 614.187012,442.783051 
	C614.187012,446.011993 614.187012,449.031952 614.187012,452.358582 
	C618.848877,452.358582 623.132263,452.358582 627.930054,452.358582 
	C627.930054,458.272400 627.930054,463.886993 627.930054,470.500549 
M551.495239,488.978577 
	C555.389893,489.449463 559.284607,489.920349 563.286377,490.404175 
	C563.286377,473.925171 563.286377,458.433533 563.286377,442.936005 
	C559.173157,442.936005 555.442871,442.936005 551.404968,442.936005 
	C551.404968,458.206299 551.404968,473.132263 551.495239,488.978577 
z"/>
<path fill="#F6F5F1" opacity="1.000000" stroke="none" 
	d="
M310.999939,510.172729 
	C255.529907,510.172760 200.559875,510.172760 145.253387,510.172760 
	C145.253387,478.429810 145.253387,446.891998 145.253387,415.117493 
	C220.593292,415.117493 295.845062,415.117493 371.463898,415.117493 
	C371.463898,446.632233 371.463898,478.161987 371.463898,510.172729 
	C351.397644,510.172729 331.448792,510.172729 310.999939,510.172729 
M300.785980,442.645355 
	C299.965179,443.380768 298.437195,444.108185 298.428802,444.852783 
	C298.282898,457.784698 298.323608,470.718719 298.323608,483.776123 
	C301.747162,483.776123 304.657257,483.776123 308.162323,483.776123 
	C308.162323,475.753540 308.162323,467.946533 308.162323,459.269318 
	C314.131226,466.520660 319.725983,472.708801 324.579071,479.432312 
	C327.690063,483.742310 331.231964,484.849365 336.049438,483.658478 
	C336.049438,470.099304 336.049438,456.530884 336.049438,442.984680 
	C332.878326,442.984680 329.998230,442.984680 326.760895,442.984680 
	C326.760895,451.040131 326.760895,458.760071 326.760895,467.487823 
	C320.563904,459.933014 314.873566,453.276642 309.534546,446.349457 
	C307.383087,443.558044 305.117188,442.022766 300.785980,442.645355 
M216.307373,483.995605 
	C216.850418,483.022705 217.826965,482.065369 217.862518,481.074249 
	C218.029373,476.423920 217.937820,471.764252 217.937958,467.107941 
	C217.938202,459.023926 217.938019,450.939911 217.938019,442.998993 
	C214.379181,442.998993 211.462448,442.998993 208.151855,442.998993 
	C208.151855,448.401428 208.151855,453.484375 208.151855,458.580231 
	C201.721817,458.580231 195.709045,458.580231 189.257553,458.580231 
	C189.257553,453.129211 189.257553,448.054413 189.257553,442.987671 
	C185.920090,442.987671 183.039841,442.987671 180.294983,442.987671 
	C180.294983,456.857483 180.294983,470.394684 180.294983,483.833344 
	C183.444763,483.833344 186.243469,483.833344 189.465271,483.833344 
	C189.465271,478.253815 189.465271,472.834900 189.465271,467.319885 
	C195.951294,467.319885 202.007156,467.319885 208.197174,467.319885 
	C208.197174,470.285156 208.197174,472.939087 208.197174,475.593048 
	C208.197174,478.342407 208.197174,481.091797 208.197174,484.004120 
	C211.058090,484.004120 213.214859,484.004120 216.307373,483.995605 
M272.128937,463.316132 
	C269.426666,457.258636 266.782410,451.174347 263.998535,445.154572 
	C262.525696,441.969696 254.187698,441.240265 252.771149,444.309692 
	C246.753403,457.349091 240.988419,470.505096 235.071228,483.752563 
	C238.680771,483.752563 241.776978,483.752563 244.865067,483.752563 
	C245.711273,481.698853 246.212143,479.684113 247.309341,478.076294 
	C248.168488,476.817291 249.721359,475.295013 251.043762,475.217560 
	C256.506317,474.897736 261.998444,475.083527 267.520172,475.083527 
	C268.859680,478.138489 270.109985,480.989960 271.339813,483.794678 
	C274.600464,483.794678 277.689697,483.794678 281.280151,483.794678 
	C278.229828,476.958313 275.340057,470.481689 272.128937,463.316132 
z"/>
<path fill="#F2F2F0" opacity="1.000000" stroke="none" 
	d="
M399.928345,447.143219 
	C399.526642,445.530640 399.214905,444.315613 398.925629,443.188232 
	C399.438324,442.933289 399.574188,442.812744 399.718628,442.801453 
	C411.162659,441.906464 411.138550,441.913452 414.073761,453.054077 
	C415.936371,460.123566 417.881683,467.171265 419.798645,474.226379 
	C419.927429,474.700317 420.130219,475.154205 420.701599,476.726105 
	C423.009674,467.854004 425.078217,459.943787 427.124207,452.027740 
	C429.845215,441.500031 429.837708,441.498077 441.549377,443.112793 
	C444.431854,453.870117 447.347961,464.752960 450.651215,477.080597 
	C452.592163,469.974243 454.188385,464.174805 455.754944,458.367371 
	C456.230804,456.603333 456.605164,454.812164 457.059387,453.041992 
	C459.860657,442.124359 459.863861,442.125183 472.052551,442.885651 
	C466.897644,458.567413 461.790527,474.103821 456.627747,489.809540 
	C452.612183,489.809540 448.642365,489.809540 444.141266,489.809540 
	C441.382111,479.704742 438.571655,469.412018 435.761169,459.119293 
	C435.480927,459.096985 435.200653,459.074677 434.920410,459.052338 
	C432.108582,469.228180 429.296722,479.404053 426.522675,489.443176 
	C426.011566,489.665436 425.718140,489.896545 425.415070,489.909912 
	C414.100891,490.409882 414.096893,490.408417 410.586029,479.729797 
	C407.058868,469.001617 403.540466,458.270569 399.928345,447.143219 
z"/>
<path fill="#F6F5F3" opacity="1.000000" stroke="none" 
	d="
M524.804565,490.002319 
	C513.369873,490.002289 502.412964,490.002289 491.228302,490.002289 
	C491.228302,474.182617 491.228302,458.747620 491.228302,442.982361 
	C503.283508,442.982361 515.353088,442.982361 527.742432,442.982361 
	C527.742432,445.822693 527.742432,448.697723 527.742432,452.037445 
	C519.600342,452.037445 511.519531,452.037445 503.236023,452.037445 
	C503.236023,455.249084 503.236023,458.011292 503.236023,461.452667 
	C510.667816,461.452667 518.038879,461.452667 525.554993,461.452667 
	C525.554993,464.896881 525.554993,467.664948 525.554993,470.845215 
	C518.110901,470.845215 510.854858,470.845215 503.312683,470.845215 
	C503.312683,474.146332 503.312683,477.042419 503.312683,480.510590 
	C511.797791,480.510590 520.203552,480.510590 529.743469,480.510590 
	C526.933289,483.844482 532.729187,489.378113 524.804565,490.002319 
z"/>
<path fill="#F3F2F0" opacity="1.000000" stroke="none" 
	d="
M681.012695,461.889404 
	C683.437012,456.192322 685.572083,450.770508 688.176208,445.584290 
	C688.855652,444.231201 690.949890,442.872284 692.473389,442.776825 
	C701.586731,442.205750 701.591248,442.330780 705.223022,450.907806 
	C710.077576,462.372345 714.945557,473.831207 719.784790,485.302216 
	C720.351257,486.645081 720.771973,488.049500 721.467529,490.009644 
	C719.053345,490.009644 717.092957,489.791901 715.198486,490.052948 
	C710.638977,490.681091 707.715088,489.460846 706.534973,484.492340 
	C706.208313,483.117157 703.716553,481.621063 702.026917,481.343170 
	C698.945984,480.836426 695.695374,481.460236 692.563843,481.140106 
	C687.205688,480.592316 683.160217,481.534241 682.025085,487.757507 
	C681.858948,488.668396 680.030334,489.798004 678.883240,489.907471 
	C675.765442,490.205139 672.600464,490.009705 668.913208,490.009705 
	C673.027649,480.480927 676.963074,471.366760 681.012695,461.889404 
M690.646667,466.232330 
	C689.970154,468.016693 689.293640,469.801056 688.525085,471.828064 
	C693.223389,471.828064 697.282593,471.828064 701.794495,471.828064 
	C699.641663,466.270660 697.627747,461.071869 695.177307,454.746094 
	C693.450195,459.114380 692.191040,462.299133 690.646667,466.232330 
z"/>
<path fill="#F2F2F0" opacity="1.000000" stroke="none" 
	d="
M762.765869,487.653381 
	C761.340454,488.751648 759.965454,489.745483 758.489868,489.928894 
	C756.053833,490.231628 753.552734,490.011078 750.635620,490.011078 
	C750.635620,477.429474 750.635620,465.177277 750.635620,452.393921 
	C745.825867,452.393921 741.424194,452.393921 736.730957,452.393921 
	C736.730957,448.966888 736.730957,446.073883 736.730957,442.854553 
	C750.057129,442.854553 763.279907,442.854553 776.754761,442.854553 
	C776.754761,445.842804 776.754761,448.769012 776.754761,452.080414 
	C772.320801,452.080414 767.890259,452.080414 762.771179,452.080414 
	C762.771179,464.027954 762.771179,475.606415 762.765869,487.653381 
z"/>
<path fill="#F6F5F3" opacity="1.000000" stroke="none" 
	d="
M627.930054,470.001068 
	C627.930054,463.886993 627.930054,458.272400 627.930054,452.358582 
	C623.132263,452.358582 618.848877,452.358582 614.187012,452.358582 
	C614.187012,449.031952 614.187012,446.011993 614.187012,442.783051 
	C627.430115,442.783051 640.512512,442.783051 653.870605,442.783051 
	C653.870605,445.873230 653.870605,448.775757 653.870605,452.139679 
	C649.351440,452.139679 644.932129,452.139679 640.139648,452.139679 
	C640.139648,464.836334 640.139648,477.089417 640.139648,489.670898 
	C636.026184,489.670898 632.293884,489.670898 627.930054,489.670898 
	C627.930054,483.354736 627.930054,476.927643 627.930054,470.001068 
z"/>
<path fill="#E8E7E6" opacity="1.000000" stroke="none" 
	d="
M551.450073,488.518433 
	C551.404968,473.132263 551.404968,458.206299 551.404968,442.936005 
	C555.442871,442.936005 559.173157,442.936005 563.286377,442.936005 
	C563.286377,458.433533 563.286377,473.925171 563.286377,490.404175 
	C559.284607,489.920349 555.389893,489.449463 551.450073,488.518433 
z"/>
<path fill="#070707" opacity="1.000000" stroke="none" 
	d="
M301.192871,442.644104 
	C305.117188,442.022766 307.383087,443.558044 309.534546,446.349457 
	C314.873566,453.276642 320.563904,459.933014 326.760895,467.487823 
	C326.760895,458.760071 326.760895,451.040131 326.760895,442.984680 
	C329.998230,442.984680 332.878326,442.984680 336.049438,442.984680 
	C336.049438,456.530884 336.049438,470.099304 336.049438,483.658478 
	C331.231964,484.849365 327.690063,483.742310 324.579071,479.432312 
	C319.725983,472.708801 314.131226,466.520660 308.162323,459.269318 
	C308.162323,467.946533 308.162323,475.753540 308.162323,483.776123 
	C304.657257,483.776123 301.747162,483.776123 298.323608,483.776123 
	C298.323608,470.718719 298.282898,457.784698 298.428802,444.852783 
	C298.437195,444.108185 299.965179,443.380768 301.192871,442.644104 
z"/>
<path fill="#050404" opacity="1.000000" stroke="none" 
	d="
M215.839493,483.999878 
	C213.214859,484.004120 211.058090,484.004120 208.197174,484.004120 
	C208.197174,481.091797 208.197174,478.342407 208.197174,475.593048 
	C208.197174,472.939087 208.197174,470.285156 208.197174,467.319885 
	C202.007156,467.319885 195.951294,467.319885 189.465271,467.319885 
	C189.465271,472.834900 189.465271,478.253815 189.465271,483.833344 
	C186.243469,483.833344 183.444763,483.833344 180.294983,483.833344 
	C180.294983,470.394684 180.294983,456.857483 180.294983,442.987671 
	C183.039841,442.987671 185.920090,442.987671 189.257553,442.987671 
	C189.257553,448.054413 189.257553,453.129211 189.257553,458.580231 
	C195.709045,458.580231 201.721817,458.580231 208.151855,458.580231 
	C208.151855,453.484375 208.151855,448.401428 208.151855,442.998993 
	C211.462448,442.998993 214.379181,442.998993 217.938019,442.998993 
	C217.938019,450.939911 217.938202,459.023926 217.937958,467.107941 
	C217.937820,471.764252 218.029373,476.423920 217.862518,481.074249 
	C217.826965,482.065369 216.850418,483.022705 215.839493,483.999878 
z"/>
<path fill="#060605" opacity="1.000000" stroke="none" 
	d="
M272.289612,463.660583 
	C275.340057,470.481689 278.229828,476.958313 281.280151,483.794678 
	C277.689697,483.794678 274.600464,483.794678 271.339813,483.794678 
	C270.109985,480.989960 268.859680,478.138489 267.520172,475.083527 
	C261.998444,475.083527 256.506317,474.897736 251.043762,475.217560 
	C249.721359,475.295013 248.168488,476.817291 247.309341,478.076294 
	C246.212143,479.684113 245.711273,481.698853 244.865067,483.752563 
	C241.776978,483.752563 238.680771,483.752563 235.071228,483.752563 
	C240.988419,470.505096 246.753403,457.349091 252.771149,444.309692 
	C254.187698,441.240265 262.525696,441.969696 263.998535,445.154572 
	C266.782410,451.174347 269.426666,457.258636 272.289612,463.660583 
M258.879761,453.784271 
	C258.659210,453.602295 258.457336,453.384766 258.209534,453.254761 
	C258.101013,453.197815 257.794189,453.274231 257.753967,453.366821 
	C255.714462,458.061127 253.694107,462.763733 251.606033,467.618103 
	C256.286987,467.618103 260.130768,467.618103 264.534912,467.618103 
	C262.593170,462.929291 260.847778,458.714600 258.879761,453.784271 
z"/>
<path fill="#282A36" opacity="1.000000" stroke="none" 
	d="
M690.789307,465.858093 
	C692.191040,462.299133 693.450195,459.114380 695.177307,454.746094 
	C697.627747,461.071869 699.641663,466.270660 701.794495,471.828064 
	C697.282593,471.828064 693.223389,471.828064 688.525085,471.828064 
	C689.293640,469.801056 689.970154,468.016693 690.789307,465.858093 
z"/>
<path fill="#E8E7E6" opacity="1.000000" stroke="none" 
	d="
M258.991089,454.142090 
	C260.847778,458.714600 262.593170,462.929291 264.534912,467.618103 
	C260.130768,467.618103 256.286987,467.618103 251.606033,467.618103 
	C253.694107,462.763733 255.714462,458.061127 257.753967,453.366821 
	C257.794189,453.274231 258.101013,453.197815 258.209534,453.254761 
	C258.457336,453.384766 258.659210,453.602295 258.991089,454.142090 
z"/>
</svg>